{"title":"De Gelukkige Huisvrouw 2010 DVDrip Dutch English Klam","uid":6523299,"size":1175627368,"categoryP":"video","categoryS":"movies","magnet":"?xt=urn:btih:bd38a1e25ce7a0882b418ba32eb02d62dc4af19f&amp;dn=De+Gelukkige+Huisvrouw+2010+DVDrip+Dutch+English+Klam&amp;tr=udp%3A%2F%2Ftracker.openbittorrent.com%3A80&amp;tr=udp%3A%2F%2Fopen.demonii.com%3A1337&amp;tr=udp%3A%2F%2Ftracker.coppersurfer.tk%3A6969&amp;tr=udp%3A%2F%2Fexodus.desync.com%3A6969","seeders":2,"leechers":0,"uploader":"Klambake","files":-1,"time":1310070809,"description":"Dutch spoken and English subs.\n\nWith: Carice van Houten, Waldemar Torenstra and RenÃƒÂ© van 't Hof\n\nMaak kennis met Lea Meijer, een vrouw die jong, mooi, rijk en gelukkig getrouwd is met Harry. Op een kwade dag besluit Harry dat hij een kind wil. Lea stemt toe, nadat ze zijn overeengekomen dat hij haar elke avond zal nemen. En met een fulltime au-pair hoeft haar leven toch niet echt te veranderen? De bevalling wordt een langdurige hel compleet met tangverlossing en totaalruptuur. Maar Junior blijkt gezond en Harry is dolgelukkig. Maar Lea niet.\n\nLea is an immaculate 30-something wife whose husband's job in real estate allows her an enviably glossy lifestyle... \n\n------------------ Dutch Friends ------------------\nYou can find my Friends at: http://www.Film-Test.nl \n------ They got my dutchs subs ---- and more ------\n\nGeneral:\n\nComplete name                    : De Gelukkige Huisvrouw\\De Gelukkige Huisvrouw.avi\nFormat                           : AVI\nFormat/Info                      : Audio Video Interleave\nFile size                        : 1.09 GiB\nDuration                         : 1h 37mn\nOverall bit rate                 : 1 601 Kbps\n\nVideo:\n\nFormat                           : MPEG-4 Visual\nFormat profile                   : Simple@L3\nFormat settings, BVOP            : No\nFormat settings, QPel            : No\nFormat settings, GMC             : No warppoints\nFormat settings, Matrix          : Default (H.263)\nCodec ID                         : XVID\nCodec ID/Hint                    : XviD\nDuration                         : 1h 37mn\nBit rate                         : 1 428 Kbps\nWidth                            : 704 pixels\nHeight                           : 396 pixels\nDisplay aspect ratio             : 16:9\nFrame rate                       : 25.000 fps\nColor space                      : YUV\nChroma subsampling               : 4:2:0\nBit depth                        : 8 bits\nScan type                        : Progressive\nBits/(Pixel*Frame)               : 0.205\nStream size                      : 1 000 MiB (89%)\nWriting library                  : XviD 1.1.2 (UTC 2006-11-01)\n\nAudio:\n\nFormat                           : MPEG Audio\nFormat version                   : Version 1\nFormat profile                   : Layer 3\nMode                             : Joint stereo\nMode extension                   : MS Stereo\nCodec ID                         : 55\nCodec ID/Hint                    : MP3\nDuration                         : 1h 37mn\nBit rate mode                    : Constant\nBit rate                         : 160 Kbps\nChannel(s)                       : 2 channels\nSampling rate                    : 48.0 KHz\nStream size                      : 112 MiB (10%)\nAlignment                        : Split accross interleaves\nInterleave, duration             : 24 ms (0.60 video frame)\nInterleave, preload duration     : 460 ms\n\n","torrent":{"xt":"urn:btih:bd38a1e25ce7a0882b418ba32eb02d62dc4af19f","amp;dn":"De+Gelukkige+Huisvrouw+2010+DVDrip+Dutch+English+Klam","amp;tr":["udp%3A%2F%2Ftracker.openbittorrent.com%3A80","udp%3A%2F%2Fopen.demonii.com%3A1337","udp%3A%2F%2Ftracker.coppersurfer.tk%3A6969","udp%3A%2F%2Fexodus.desync.com%3A6969"],"infoHash":"bd38a1e25ce7a0882b418ba32eb02d62dc4af19f","infoHashBuffer":{"type":"Buffer","data":[189,56,161,226,92,231,160,136,43,65,139,163,46,176,45,98,220,74,241,159]},"announce":[],"urlList":[]}}